<svg width="56" height="56" viewBox="0 0 56 56" fill="none" xmlns="http://www.w3.org/2000/svg">
<path fill-rule="evenodd" clip-rule="evenodd" d="M27.7352 33.6327L27.9986 33.6328L28.588 33.6348C33.0927 33.6645 43.3872 34.1195 43.3872 41.097C43.3872 48.0288 33.4516 48.4808 28.6582 48.5103L26.8823 48.5103C22.3773 48.4807 12.0808 48.0262 12.0808 41.0574C12.0808 34.1169 22.3773 33.6643 26.8823 33.6348L27.4717 33.6328C27.5631 33.6327 27.651 33.6327 27.7352 33.6327ZM27.7352 37.1327C22.1912 37.1327 15.5808 37.814 15.5808 41.0574C15.5808 44.2273 21.7966 44.9684 27.2285 45.0104L27.7352 45.0124C33.2792 45.0124 39.8872 44.3334 39.8872 41.097C39.8872 37.821 33.2792 37.1327 27.7352 37.1327ZM46.2936 32.6858C51.9472 33.5328 53.1349 36.1882 53.1349 38.2672C53.1349 39.5365 52.6356 41.8535 49.2989 43.1252C49.0936 43.2022 48.8836 43.2395 48.6759 43.2395C47.9712 43.2395 47.3062 42.8102 47.0402 42.1125C46.6949 41.2095 47.1499 40.1968 48.0529 39.8538C49.6349 39.2518 49.6349 38.5868 49.6349 38.2672C49.6349 37.2452 48.3352 36.5312 45.7732 36.1485C44.8189 36.0038 44.1586 35.1148 44.3009 34.1558C44.4432 33.1992 45.3299 32.5622 46.2936 32.6858ZM11.1671 34.1558C11.3094 35.1148 10.6491 36.0038 9.69478 36.1485C7.13278 36.5312 5.83311 37.2452 5.83311 38.2672C5.83311 38.5868 5.83311 39.2495 7.41745 39.8538C8.32045 40.1968 8.77545 41.2095 8.43011 42.1125C8.16411 42.8102 7.49911 43.2395 6.79445 43.2395C6.58678 43.2395 6.37678 43.2022 6.17145 43.1252C2.83245 41.8512 2.33311 39.5342 2.33311 38.2672C2.33311 36.1905 3.52078 33.5328 9.17678 32.6858C10.1404 32.5645 11.0224 33.1992 11.1671 34.1558ZM27.7352 9.33337C33.6152 9.33337 38.3962 14.1167 38.3962 19.9944C38.3962 25.872 33.6152 30.6554 27.7352 30.6554H27.6722C24.8255 30.646 22.1585 29.5307 20.1612 27.5147C18.1592 25.501 17.0648 22.827 17.0764 19.9874C17.0764 14.1167 21.8575 9.33337 27.7352 9.33337ZM27.7352 12.8334C23.7872 12.8334 20.5765 16.0464 20.5765 19.9944C20.5695 21.9077 21.3022 23.6974 22.6438 25.0484C23.9855 26.3994 25.7728 27.1484 27.6768 27.1554L27.7352 28.9054V27.1554C31.6832 27.1554 34.8962 23.9447 34.8962 19.9944C34.8962 16.0464 31.6832 12.8334 27.7352 12.8334ZM42.1762 11.6189C46.2782 12.2932 49.2579 15.8025 49.2579 19.9629C49.2485 24.1512 46.1195 27.7445 41.9778 28.3255C41.8962 28.3372 41.8145 28.3419 41.7352 28.3419C40.8765 28.3419 40.1275 27.7095 40.0038 26.8345C39.8708 25.8755 40.5359 24.9912 41.4949 24.8582C43.9215 24.5175 45.7532 22.4129 45.7579 19.9582C45.7579 17.5245 44.0125 15.4665 41.6068 15.0722C40.6548 14.9159 40.0085 14.0152 40.1648 13.0609C40.3235 12.1065 41.2172 11.4672 42.1762 11.6189ZM15.3055 13.0609C15.4618 14.0152 14.8155 14.9159 13.8635 15.0722C11.4578 15.4665 9.71251 17.5245 9.71251 19.9629C9.71718 22.4129 11.5488 24.5199 13.9732 24.8582C14.9322 24.9912 15.5972 25.8755 15.4642 26.8345C15.3405 27.7095 14.5915 28.3419 13.7328 28.3419C13.6535 28.3419 13.5718 28.3372 13.4902 28.3255C9.34851 27.7445 6.22185 24.1512 6.21251 19.9675C6.21251 15.8025 9.19218 12.2932 13.2942 11.6189C14.2765 11.4649 15.1468 12.1112 15.3055 13.0609Z" fill="#00BA8B"/>
</svg>
