<svg width="56" height="56" viewBox="0 0 56 56" fill="none" xmlns="http://www.w3.org/2000/svg">
<path fill-rule="evenodd" clip-rule="evenodd" d="M27.7352 33.6326L27.9987 33.6327L28.588 33.6347C33.0927 33.6643 43.3872 34.1194 43.3872 41.0969C43.3872 48.0286 33.4516 48.4807 28.6582 48.5102L26.8823 48.5102C22.3774 48.4805 12.0809 48.0261 12.0809 41.0573C12.0809 34.1168 22.3774 33.6642 26.8823 33.6346L27.4717 33.6327C27.5632 33.6326 27.651 33.6326 27.7352 33.6326ZM27.7352 37.1326C22.1912 37.1326 15.5809 37.8139 15.5809 41.0573C15.5809 44.2272 21.7966 44.9683 27.2285 45.0103L27.7352 45.0123C33.2792 45.0123 39.8872 44.3333 39.8872 41.0969C39.8872 37.8209 33.2792 37.1326 27.7352 37.1326ZM46.2936 32.6857C51.9473 33.5327 53.1349 36.1881 53.1349 38.2671C53.1349 39.5364 52.6356 41.8534 49.2989 43.1251C49.0936 43.2021 48.8836 43.2394 48.6759 43.2394C47.9713 43.2394 47.3063 42.8101 47.0403 42.1124C46.6949 41.2094 47.1499 40.1967 48.0529 39.8537C49.6349 39.2517 49.6349 38.5867 49.6349 38.2671C49.6349 37.2451 48.3353 36.5311 45.7733 36.1484C44.8189 36.0037 44.1586 35.1147 44.3009 34.1557C44.4433 33.1991 45.3299 32.5621 46.2936 32.6857ZM11.1671 34.1557C11.3095 35.1147 10.6491 36.0037 9.6948 36.1484C7.1328 36.5311 5.83313 37.2451 5.83313 38.2671C5.83313 38.5867 5.83313 39.2494 7.41746 39.8537C8.32046 40.1967 8.77546 41.2094 8.43013 42.1124C8.16413 42.8101 7.49913 43.2394 6.79446 43.2394C6.5868 43.2394 6.3768 43.2021 6.17146 43.1251C2.83246 41.8511 2.33313 39.5341 2.33313 38.2671C2.33313 36.1904 3.5208 33.5327 9.1768 32.6857C10.1405 32.5644 11.0225 33.1991 11.1671 34.1557ZM27.7352 9.33325C33.6152 9.33325 38.3962 14.1166 38.3962 19.9943C38.3962 25.8719 33.6152 30.6553 27.7352 30.6553H27.6722C24.8255 30.6459 22.1585 29.5306 20.1612 27.5146C18.1592 25.5009 17.0649 22.8269 17.0764 19.9873C17.0764 14.1166 21.8575 9.33325 27.7352 9.33325ZM27.7352 12.8333C23.7872 12.8333 20.5765 16.0463 20.5765 19.9943C20.5695 21.9076 21.3022 23.6973 22.6439 25.0483C23.9855 26.3993 25.7729 27.1483 27.6769 27.1553L27.7352 28.9053V27.1553C31.6832 27.1553 34.8962 23.9446 34.8962 19.9943C34.8962 16.0463 31.6832 12.8333 27.7352 12.8333ZM42.1762 11.6188C46.2782 12.2931 49.2579 15.8024 49.2579 19.9628C49.2485 24.1511 46.1195 27.7444 41.9779 28.3254C41.8962 28.3371 41.8145 28.3418 41.7352 28.3418C40.8765 28.3418 40.1275 27.7094 40.0039 26.8344C39.8709 25.8754 40.5359 24.9911 41.4949 24.8581C43.9215 24.5174 45.7532 22.4128 45.7579 19.9581C45.7579 17.5244 44.0125 15.4664 41.6069 15.0721C40.6549 14.9158 40.0085 14.0151 40.1649 13.0608C40.3235 12.1064 41.2172 11.4671 42.1762 11.6188ZM15.3055 13.0608C15.4619 14.0151 14.8155 14.9158 13.8635 15.0721C11.4579 15.4664 9.71253 17.5244 9.71253 19.9628C9.7172 22.4128 11.5489 24.5198 13.9732 24.8581C14.9322 24.9911 15.5972 25.8754 15.4642 26.8344C15.3405 27.7094 14.5915 28.3418 13.7329 28.3418C13.6535 28.3418 13.5719 28.3371 13.4902 28.3254C9.34853 27.7444 6.22186 24.1511 6.21253 19.9674C6.21253 15.8024 9.1922 12.2931 13.2942 11.6188C14.2765 11.4648 15.1469 12.1111 15.3055 13.0608Z" fill="#EEB300"/>
</svg>
