<svg width="15" height="18" viewBox="0 0 15 18" fill="none" xmlns="http://www.w3.org/2000/svg">
<path d="M13.9 0.887939H5.1C4.80826 0.887939 4.52847 1.01587 4.32218 1.2436C4.11589 1.47132 4 1.78018 4 2.10223H13.9V16.6737H5.1V10.7237H4V16.6737C4 16.9957 4.11589 17.3046 4.32218 17.5323C4.52847 17.76 4.80826 17.8879 5.1 17.8879H13.9C14.1917 17.8879 14.4715 17.76 14.6778 17.5323C14.8841 17.3046 15 16.9957 15 16.6737V2.10223C15 1.78018 14.8841 1.47132 14.6778 1.2436C14.4715 1.01587 14.1917 0.887939 13.9 0.887939V0.887939Z" fill="#1D1D1D"/>
<path d="M7.52795 11.7313C7.46293 11.7902 7.41012 11.8627 7.37284 11.9443C7.33556 12.0259 7.31461 12.1147 7.31131 12.2052C7.308 12.2957 7.32241 12.386 7.35364 12.4704C7.38487 12.5547 7.43223 12.6313 7.49276 12.6954C7.55329 12.7595 7.62568 12.8096 7.70539 12.8426C7.78509 12.8757 7.87039 12.8909 7.95593 12.8874C8.04147 12.884 8.12541 12.8618 8.20247 12.8223C8.27953 12.7829 8.34805 12.727 8.40373 12.6582L12 8.85209L8.40994 5.046C8.29112 4.93831 8.13827 4.88204 7.98195 4.88843C7.82563 4.89482 7.67735 4.9634 7.56673 5.08047C7.45611 5.19755 7.39131 5.35448 7.38527 5.51992C7.37923 5.68536 7.43241 5.84712 7.53416 5.97287L9.62733 8.14214H0.621118C0.456387 8.14214 0.298403 8.2114 0.181921 8.33468C0.065439 8.45796 0 8.62516 0 8.7995C0 8.97384 0.065439 9.14104 0.181921 9.26432C0.298403 9.38759 0.456387 9.45685 0.621118 9.45685H9.62733L7.52795 11.7313Z" fill="#1D1D1D"/>
</svg>
