<svg width="16" height="18" viewBox="0 0 16 18" fill="none" xmlns="http://www.w3.org/2000/svg">
<path d="M13.9635 0.108887H5.1635C4.87176 0.108887 4.59197 0.23682 4.38568 0.464543C4.17939 0.692265 4.0635 1.00112 4.0635 1.32317H13.9635V15.8946H5.1635V9.9446H4.0635V15.8946C4.0635 16.2166 4.17939 16.5255 4.38568 16.7532C4.59197 16.981 4.87176 17.1089 5.1635 17.1089H13.9635C14.2552 17.1089 14.535 16.981 14.7413 16.7532C14.9476 16.5255 15.0635 16.2166 15.0635 15.8946V1.32317C15.0635 1.00112 14.9476 0.692265 14.7413 0.464543C14.535 0.23682 14.2552 0.108887 13.9635 0.108887V0.108887Z" fill="#1D1D1D"/>
<path d="M7.59145 10.9522C7.52643 11.0112 7.47362 11.0837 7.43634 11.1652C7.39906 11.2468 7.37811 11.3356 7.3748 11.4262C7.3715 11.5167 7.38591 11.607 7.41714 11.6913C7.44837 11.7757 7.49573 11.8523 7.55626 11.9164C7.61679 11.9804 7.68918 12.0305 7.76889 12.0636C7.84859 12.0966 7.93389 12.1119 8.01943 12.1084C8.10497 12.1049 8.18891 12.0827 8.26597 12.0433C8.34302 12.0038 8.41155 11.9479 8.46723 11.8791L12.0635 8.07303L8.47344 4.26695C8.35462 4.15926 8.20177 4.10299 8.04545 4.10938C7.88913 4.11577 7.74085 4.18435 7.63023 4.30142C7.51961 4.41849 7.45481 4.57543 7.44877 4.74087C7.44273 4.90631 7.49591 5.06807 7.59766 5.19382L9.69083 7.36309H0.684617C0.519887 7.36309 0.361903 7.43235 0.245421 7.55562C0.128938 7.6789 0.0634995 7.8461 0.0634995 8.02044C0.0634995 8.19479 0.128938 8.36199 0.245421 8.48526C0.361903 8.60854 0.519887 8.6778 0.684617 8.6778H9.69083L7.59145 10.9522Z" fill="#1D1D1D"/>
</svg>
