<svg width="1655" height="1303" viewBox="0 0 1655 1303" fill="none" xmlns="http://www.w3.org/2000/svg">
<path d="M1421.47 550.264C1400.92 305.363 1194.72 149.885 1039.81 153.013C861.294 156.647 794.011 370.064 658.156 305.152C534.181 245.986 526.877 37.894 435.734 5.09961C351.972 -25.0324 219.429 100.778 1 723.534" stroke="white" stroke-opacity="0.3" stroke-miterlimit="10"/>
<path d="M11.4141 751.128C227.189 137.374 359.808 6.70392 444.758 31.2575C507.719 49.5987 531.983 150.644 581.244 229.63C605.832 270.288 636.073 300.101 669.253 316.391C777.936 369.893 842.717 251.479 958.857 200.681C988.459 187.584 1018.88 180.35 1049.49 179.128C1205.04 172.071 1408.93 306.84 1432.67 542.825" stroke="white" stroke-opacity="0.3" stroke-miterlimit="10"/>
<path d="M21.8516 778.643C234.972 173.933 367.592 38.4444 453.553 57.4618C516.741 71.4501 542.446 167.678 591.808 242.649C616.984 281.845 647.18 310.912 680.095 327.635C787.211 382.025 851.966 275.359 968.511 226.928C998.128 214.515 1028.43 207.264 1058.95 205.29C1215.15 195.105 1416.72 308.322 1443.63 535.39" stroke="white" stroke-opacity="0.3" stroke-miterlimit="10"/>
<path d="M32.2656 806.07C242.682 210.53 375.377 70.2664 462.45 83.6208C525.916 93.3408 552.961 184.666 602.5 255.665C628.211 293.375 658.339 321.715 690.964 338.876C796.614 394.153 861.117 299.193 978.192 253.171C1007.84 241.333 1038.06 234.02 1068.5 231.322C1225.33 217.545 1424.58 309.674 1454.68 527.824" stroke="white" stroke-opacity="0.3" stroke-miterlimit="10"/>
<path d="M42.6797 833.708C250.442 247.085 383.112 102.131 471.373 109.822C535.041 115.316 563.552 201.74 613.243 268.639C639.507 304.883 669.622 332.525 702.01 350.117C806.194 406.282 870.52 323.07 988.176 279.415C1017.79 268.268 1047.87 260.949 1078.16 257.524C1235.65 240.155 1432.57 311.237 1465.88 520.471" stroke="white" stroke-opacity="0.3" stroke-miterlimit="10"/>
<path d="M52.9922 861.262C258.177 283.641 390.922 129.896 480.295 135.982C544.09 140.208 574.142 218.517 623.935 281.655C650.739 316.369 680.839 343.311 712.979 361.359C815.698 418.411 879.796 346.948 997.856 305.701C1027.46 295.133 1057.44 287.765 1087.61 283.641C1245.76 262.51 1440.35 312.674 1476.85 513.033" stroke="white" stroke-opacity="0.3" stroke-miterlimit="10"/>
<path d="M63.5273 888.817C265.932 320.24 398.576 166.157 489.188 161.931C553.185 159.48 584.779 235.549 634.647 294.714C661.961 327.885 692.05 354.144 723.944 372.643C825.197 430.583 889.143 370.826 1007.63 331.988C1037.23 322.051 1067.11 314.66 1097.16 309.844C1255.96 285.121 1448.23 314.07 1487.91 505.638" stroke="white" stroke-opacity="0.3" stroke-miterlimit="10"/>
<path d="M73.9453 916.369C273.62 356.793 406.289 197.935 498.114 188.342C562.263 181.495 595.475 252.198 645.368 307.686C673.17 339.282 703.261 364.844 734.918 383.756C834.68 442.625 898.474 394.659 1017.42 358.103C1045.1 349.651 1074.64 341.537 1106.72 335.832C1266.2 307.39 1456.12 315.589 1498.99 498.156" stroke="white" stroke-opacity="0.3" stroke-miterlimit="10"/>
<path d="M84.3555 943.923C281.427 393.391 413.995 230.18 507.008 214.417C571.334 203.556 606.188 268.891 656.132 320.618C684.424 350.623 714.534 375.54 745.96 394.955C844.256 454.712 907.848 418.41 1027.27 384.347C1055.08 376.402 1084.55 368.373 1116.37 361.949C1276.31 329.831 1464 317.068 1510.06 490.676" stroke="white" stroke-opacity="0.3" stroke-miterlimit="10"/>
<path d="M94.7969 971.436C289.189 429.948 421.707 262.341 515.933 240.704C580.41 225.87 617.034 285.669 666.776 333.678C695.519 362.073 725.644 386.36 756.831 406.282C853.686 466.926 917.102 442.372 1036.98 410.508C1064.78 403.07 1094.28 395.04 1125.85 387.94C1286.63 351.934 1471.89 318.295 1521.13 483.027" stroke="white" stroke-opacity="0.3" stroke-miterlimit="10"/>
<path d="M105.211 998.991C296.924 466.505 429.417 294.588 524.78 266.865C589.409 248.101 627.701 302.279 677.442 346.738C706.632 373.461 736.794 397.103 767.751 417.524C863.114 479.056 926.353 466.209 1046.71 436.964C1074.64 430.118 1104.06 422.046 1135.35 414.313C1296.79 374.418 1479.7 319.986 1532.18 475.802" stroke="white" stroke-opacity="0.3" stroke-miterlimit="10"/>
<path d="M115.625 1026.55C304.684 503.103 437.177 326.833 533.753 293.025C598.559 270.373 638.545 318.846 688.185 359.755C716.721 383.252 745.939 406.96 778.772 428.767C872.669 491.144 935.731 490.087 1056.55 463.209C1084.55 456.912 1113.92 448.798 1145.01 440.431C1307.1 396.648 1487.69 321.424 1543.32 468.365" stroke="white" stroke-opacity="0.3" stroke-miterlimit="10"/>
<path d="M126.039 1054.1C312.444 539.826 444.76 359.161 542.651 319.225C607.633 292.643 649.388 335.326 698.902 372.769C728.121 394.872 757.415 417.904 789.742 440.006C882.173 503.397 945.033 513.92 1066.33 489.451C1094.41 483.746 1123.75 475.59 1154.51 466.546C1317.24 418.791 1495.53 322.859 1554.34 460.925" stroke="white" stroke-opacity="0.3" stroke-miterlimit="10"/>
<path d="M136.398 1081.65C320.175 576.255 452.617 391.533 551.544 345.426C616.704 315.041 660.228 351.765 709.616 385.827C739.542 406.451 768.886 428.849 800.607 451.29C891.597 515.441 954.23 537.84 1076.11 515.78C1104.29 510.581 1133.56 502.383 1164.06 492.747C1327.44 440.936 1503.41 324.296 1565.41 453.487" stroke="white" stroke-opacity="0.3" stroke-miterlimit="10"/>
<path d="M146.895 1109.16C327.941 612.81 460.308 423.989 560.473 371.585C625.835 337.354 671.103 368.078 720.314 398.801C750.948 417.903 780.393 439.752 811.684 462.488C901.158 527.528 963.664 561.632 1085.9 541.981C1115.37 536.728 1144.66 528.956 1173.65 518.695C1337.64 463.038 1511.38 325.817 1576.49 446.007" stroke="white" stroke-opacity="0.3" stroke-miterlimit="10"/>
<path d="M157.305 1136.72C335.697 649.408 468.19 456.318 569.291 397.745C634.855 359.71 681.892 384.348 731.053 411.818C762.394 429.356 791.89 450.655 822.65 473.73C910.684 539.657 972.987 585.51 1095.62 568.225C1125.07 563.612 1154.3 555.834 1183.15 544.939C1347.82 484.887 1519.19 327.254 1587.58 438.4" stroke="white" stroke-opacity="0.3" stroke-miterlimit="10"/>
<path d="M167.715 1164.27C343.428 685.964 476.073 488.944 578.286 423.905C644.002 382.151 692.833 400.534 741.741 424.792C773.79 440.724 803.337 461.601 833.591 484.971C920.134 551.786 982.285 609.345 1105.45 594.469C1134.87 590.441 1164.06 582.613 1192.75 571.057C1357.98 507.032 1527.07 328.733 1598.65 431.131" stroke="white" stroke-opacity="0.3" stroke-miterlimit="10"/>
<path d="M178.156 1191.83C351.191 722.73 483.759 521.442 587.186 450.106C653.179 404.548 703.705 416.635 752.435 437.808C785.293 452.05 814.814 472.504 844.563 496.212C929.64 563.829 991.59 633.222 1115.24 620.755C1144.62 617.285 1173.77 609.406 1202.31 597.216C1368.14 529.007 1534.96 330.169 1609.72 423.693" stroke="white" stroke-opacity="0.3" stroke-miterlimit="10"/>
<path d="M188.566 1219.38C358.82 759.116 491.591 554.025 596.104 476.434C662.326 427.158 714.544 432.863 763.148 451.077C796.638 463.756 826.337 483.703 855.53 507.707C939.14 576.296 1000.91 657.352 1125.01 647.168C1154.37 644.256 1183.47 636.326 1211.86 623.502C1378.3 551.066 1542.97 331.902 1620.79 416.423" stroke="white" stroke-opacity="0.3" stroke-miterlimit="10"/>
<path d="M198.98 1246.94C366.682 795.716 499.453 586.61 605.002 502.468C671.501 449.431 725.388 448.67 773.866 463.842C808.063 474.576 837.787 494.396 866.5 518.781C948.619 588.258 1010.21 681.02 1134.8 673.329C1164.12 670.998 1193.19 663.014 1221.41 649.536C1388.43 572.748 1550.73 333.087 1631.86 408.818" stroke="white" stroke-opacity="0.3" stroke-miterlimit="10"/>
<path d="M209.422 1274.45C374.444 832.27 507.316 619.402 613.826 528.626C680.578 471.912 736.107 464.601 784.459 476.857C819.364 485.689 849.164 505.298 877.346 529.894C958.024 600.3 1019.44 704.812 1144.48 699.487C1173.78 697.693 1202.82 689.655 1230.9 675.567C1398.37 594.088 1558.51 334.564 1642.88 401.337" stroke="white" stroke-opacity="0.3" stroke-miterlimit="10"/>
<path d="M219.809 1302C483.278 598.991 669.506 465.362 795.275 489.873C932.57 516.624 984.966 729.661 1154.36 725.773C1353.07 721.167 1551.66 326.197 1654 393.899" stroke="white" stroke-opacity="0.3" stroke-miterlimit="10"/>
</svg>
