<svg width="1514" height="566" viewBox="0 0 1514 566" fill="none" xmlns="http://www.w3.org/2000/svg">
<path d="M1.32031 1C325.482 29.9797 775.002 359.36 733.518 473.895C706.316 548.979 387.617 547.293 300.547 560.834C181.808 579.276 406.636 510.238 452.427 430.426C506.832 335.583 424.25 86.2529 686.231 130.091C914.867 168.371 964.376 292.351 1128.27 289.479C1276.5 286.845 1391.97 182.781 1466.03 95.8425" stroke="white" stroke-opacity="0.3" stroke-miterlimit="10"/>
<path d="M1.29297 8.59961C311.854 40.9119 744.304 359.899 709.734 469.64C687.066 541.536 385.232 539.138 304.668 551.31C192.979 568.157 408.218 501.807 453.624 425.235C508.028 333.422 432.95 94.8141 685.864 137.085C911.485 174.693 957.027 301.558 1122.39 301.742C1270.9 301.584 1390.93 199.773 1468.25 114.692" stroke="white" stroke-opacity="0.3" stroke-miterlimit="10"/>
<path d="M1.26562 16.1611C298.225 51.8061 713.606 360.374 685.973 465.346C667.838 534.054 382.847 530.945 308.789 541.747C204.128 556.948 409.8 493.338 454.82 419.993C509.225 331.21 441.673 103.35 685.497 144.04C908.103 180.99 949.677 311.069 1116.54 313.967C1265.29 316.601 1389.88 216.74 1470.49 133.502" stroke="white" stroke-opacity="0.3" stroke-miterlimit="10"/>
<path d="M1.26562 23.7754C284.624 62.7662 682.935 360.862 662.216 461.105C648.615 526.586 380.467 522.805 312.914 532.237C215.235 545.699 411.41 484.868 456.022 414.764C510.585 328.997 450.4 111.887 685.157 150.983C904.725 187.287 942.287 320.448 1110.65 326.178C1259.65 331.302 1388.81 233.72 1472.71 152.3" stroke="white" stroke-opacity="0.3" stroke-miterlimit="10"/>
<path d="M1.25 31.3623C271.143 73.6858 652.249 361.282 638.466 456.836C629.399 519.077 378.117 514.624 317.07 522.62C226.395 534.475 413.049 476.411 457.23 409.534C511.884 326.797 459.134 120.435 684.801 157.938C901.355 193.582 934.927 329.681 1104.83 338.402C1254.03 346.055 1387.82 250.686 1474.96 171.11" stroke="white" stroke-opacity="0.3" stroke-miterlimit="10"/>
<path d="M1.22656 38.9502C257.564 84.6195 621.555 361.678 614.686 452.569C610.152 511.529 375.758 506.445 321.195 513.071C237.593 523.213 414.726 467.941 458.431 404.305C513.198 324.584 467.861 128.998 684.46 164.906C897.954 199.906 927.536 338.982 1098.96 350.64C1248.41 360.809 1386.85 267.652 1477.21 189.934" stroke="white" stroke-opacity="0.3" stroke-miterlimit="10"/>
<path d="M1.22656 46.5498C243.985 95.5518 590.839 361.875 590.929 448.313C590.929 503.941 373.31 498.237 325.32 503.506C248.746 511.897 416.403 459.484 459.632 399.087C514.536 322.37 476.566 137.52 684.052 171.874C894.531 206.201 920.078 348.254 1093.06 362.876C1242.68 375.522 1385.69 284.67 1479.4 208.757" stroke="white" stroke-opacity="0.3" stroke-miterlimit="10"/>
<path d="M1.20703 54.1387C230.387 106.473 560.08 362.074 567.176 444.047C571.709 496.316 371.092 490.019 329.472 493.958C259.902 500.544 418.152 451.028 460.95 393.846C516.035 320.08 485.296 146.307 683.851 178.817C891.179 212.763 912.805 357.49 1087.35 375.088C1237.26 390.211 1384.81 301.638 1481.79 227.556" stroke="white" stroke-opacity="0.3" stroke-miterlimit="10"/>
<path d="M1.17969 61.7266C216.804 117.407 529.224 362.193 543.392 439.779C552.323 488.636 368.843 481.787 333.593 484.395C271.096 489.032 419.893 442.572 462.056 388.643C517.3 317.933 493.792 154.896 683.393 185.786C887.683 219.099 905.342 366.711 1081.39 387.326C1231.5 404.898 1383.67 318.631 1483.91 246.38" stroke="white" stroke-opacity="0.3" stroke-miterlimit="10"/>
<path d="M1.17969 69.3125C203.226 128.326 498.281 362.205 519.635 435.51C532.873 480.916 366.621 473.513 337.719 474.843C282.316 477.386 421.593 434.114 463.258 383.412C518.751 315.719 502.611 163.431 683.144 192.766C884.396 225.447 898.065 375.93 1075.63 399.575C1225.97 419.584 1382.74 335.622 1486.27 265.215" stroke="white" stroke-opacity="0.3" stroke-miterlimit="10"/>
<path d="M1.16016 76.9004C189.65 139.259 467.16 362.139 495.881 431.243C513.291 473.158 364.584 465.215 341.734 465.294C293.586 465.452 423.341 425.671 464.349 378.183C520.114 313.493 511.205 172.006 682.58 199.721C880.772 231.783 890.452 385.112 1069.56 411.8C1220.12 434.193 1381.48 352.602 1488.27 284.026" stroke="white" stroke-opacity="0.3" stroke-miterlimit="10"/>
<path d="M1.13672 84.5C176.071 150.178 435.831 361.993 472.124 426.987C493.546 465.359 362.045 459.036 345.995 455.729C305.464 458.364 425.335 417.226 465.663 372.966C521.745 311.279 520.068 180.554 682.33 206.689C877.507 238.105 883.197 394.279 1063.8 424.036C1214.61 448.866 1380.55 369.594 1490.63 302.849" stroke="white" stroke-opacity="0.3" stroke-miterlimit="10"/>
<path d="M1.13672 92.0879C162.47 161.112 404.186 361.796 448.344 422.719C473.597 457.548 359.732 451.014 350.121 446.18C316.707 447.392 427.353 408.796 466.864 367.737C523.332 309.066 528.773 189.104 681.967 213.618C874.107 244.402 875.83 403.408 1057.95 436.234C1209.01 463.462 1379.5 386.548 1492.87 321.633" stroke="white" stroke-opacity="0.3" stroke-miterlimit="10"/>
<path d="M1.12109 99.6758C148.898 172.033 372.207 361.612 424.594 418.452C453.429 449.75 357.405 442.992 354.322 436.617C328.003 436.393 429.423 400.366 468.141 362.521C525.062 306.854 537.575 197.64 681.702 220.613C870.804 250.752 868.56 412.577 1052.18 448.499C1203.49 478.097 1378.61 403.567 1495.17 340.484" stroke="white" stroke-opacity="0.3" stroke-miterlimit="10"/>
<path d="M1.08594 107.264C135.307 182.966 339.824 361.494 400.825 414.185C433.015 441.992 355.08 434.971 358.367 427.067C339.166 425.394 431.405 391.962 469.262 357.253C526.727 304.562 546.222 206.137 681.259 227.529C867.346 257.023 861.135 421.653 1046.22 460.684C1197.81 492.667 1377.44 420.507 1497.33 359.255" stroke="white" stroke-opacity="0.3" stroke-miterlimit="10"/>
<path d="M1.08594 114.851C121.729 193.886 307.113 361.56 377.046 409.916C412.386 434.325 352.745 426.948 362.515 417.517C350.41 414.408 433.536 383.571 470.463 352.075C528.563 302.52 554.95 214.699 680.897 234.537C863.969 263.358 853.813 430.808 1040.38 472.96C1192.26 507.288 1376.39 437.526 1499.58 378.118" stroke="white" stroke-opacity="0.3" stroke-miterlimit="10"/>
<path d="M1.05859 122.438C108.145 204.82 273.899 361.889 353.284 405.649C391.617 426.791 350.428 418.927 366.636 407.954C361.649 403.409 435.73 375.22 471.66 346.846C530.485 300.4 563.672 223.222 680.552 241.466C860.586 269.616 846.509 439.845 1034.5 485.158C1186.68 521.831 1375.35 454.479 1501.79 396.902" stroke="white" stroke-opacity="0.3" stroke-miterlimit="10"/>
<path d="M1.04688 130.039C94.5551 215.74 240.587 362.574 329.539 401.394C370.818 419.401 348.104 410.905 370.773 398.404C372.904 392.423 438.031 366.895 472.782 341.617C532.491 298.345 572.343 231.744 680.109 248.46C857.129 275.925 839.153 448.973 1028.57 497.422C1181.04 536.426 1374.25 471.498 1503.96 415.752" stroke="white" stroke-opacity="0.3" stroke-miterlimit="10"/>
<path d="M1.04688 137.627C80.9766 226.674 207.218 363.616 305.782 397.127C350.031 412.17 349.056 404.898 374.898 388.854C385.666 382.163 440.388 358.557 474.097 336.401C534.803 296.383 581.183 240.241 679.86 255.429C853.865 282.196 831.967 458.037 1022.79 509.66C1175.6 550.995 1373.29 488.478 1506.29 434.576" stroke="white" stroke-opacity="0.3" stroke-miterlimit="10"/>
<path d="M1.01953 145.252C67.3934 237.631 174.027 365.049 282.111 392.896C329.511 405.12 345.039 395.966 379.156 379.329C396.27 370.977 442.922 350.441 475.407 331.209C537.315 294.576 590.019 248.788 679.606 262.422C850.618 288.464 824.821 467.137 1017.05 521.922C1170.2 565.576 1372.36 505.509 1508.62 453.424" stroke="white" stroke-opacity="0.3" stroke-miterlimit="10"/>
<path d="M1 152.802C53.818 248.527 141.16 366.672 258.244 388.591C308.954 398.088 341.687 387.274 383.171 369.741C406.928 359.69 445.283 342.263 476.498 325.955C539.789 292.879 598.705 257.168 679.133 269.313C847.244 294.473 817.616 475.964 1011.07 534.082C1164.67 579.936 1371.21 522.411 1510.76 472.171" stroke="white" stroke-opacity="0.3" stroke-miterlimit="10"/>
<path d="M1 160.388C40.2395 259.445 108.699 368.514 234.487 384.321C396.954 404.805 522.221 253.07 678.793 276.306C843.866 300.82 810.271 485.184 1005.22 546.344C1159.07 594.635 1370.19 539.442 1513 491.019" stroke="white" stroke-opacity="0.3" stroke-miterlimit="10"/>
</svg>
