<svg width="1637" height="2358" viewBox="0 0 1637 2358" fill="none" xmlns="http://www.w3.org/2000/svg">
<path d="M1 1951.22C230.571 1677.04 354.318 1315.44 425.686 1019.62C485.18 772.996 484.124 672.111 547.297 488.11C684.389 88.834 947.003 -186.505 1074.28 156.618C1136.98 325.642 1113.79 539.84 1143.77 945.329C1170.75 1310.09 1240.51 1811.78 1435.26 2357" stroke="white" stroke-opacity="0.3" stroke-miterlimit="10"/>
<path d="M1.46094 1862.76C224.757 1627.13 347.266 1286.95 418.597 1010.1C478.616 777.09 483.496 683.913 550.598 503.074C691.361 123.713 937.99 -140.4 1065.45 179.756C1131.1 344.651 1116.16 555.184 1151.3 959.485C1182.24 1315.43 1253.42 1808.53 1444.81 2348.86" stroke="white" stroke-opacity="0.3" stroke-miterlimit="10"/>
<path d="M1.91797 1774.31C218.934 1577.21 340.301 1258.37 411.517 1000.58C472.186 780.964 482.757 695.704 553.907 518.04C698.031 158.152 929.365 -94.9066 1056.63 202.884C1125.37 363.771 1118.44 570.321 1158.84 973.629C1193.61 1320.66 1266.34 1805.25 1454.38 2340.67" stroke="white" stroke-opacity="0.3" stroke-miterlimit="10"/>
<path d="M2.37891 1685.85C213.116 1527.28 333.46 1229.7 404.44 990.981C465.838 784.603 481.902 707.407 557.236 533.015C704.436 192.098 921.117 -50.1029 1047.82 226.02C1119.81 382.888 1120.62 585.283 1166.4 987.783C1204.84 1325.82 1279.27 1801.96 1463.95 2332.5" stroke="white" stroke-opacity="0.3" stroke-miterlimit="10"/>
<path d="M2.83594 1597.41C207.315 1477.39 326.757 1201.03 397.36 981.518C459.593 788.044 480.972 718.998 560.52 547.976C710.539 225.54 913.163 -6.03556 1038.97 249.156C1114.35 402.04 1122.64 600.146 1173.91 1001.93C1215.9 1330.95 1292.17 1798.69 1473.48 2324.28" stroke="white" stroke-opacity="0.3" stroke-miterlimit="10"/>
<path d="M3.29688 1508.96C201.48 1427.48 320.21 1172.36 390.283 971.999C453.485 791.283 479.898 730.423 563.833 562.955C716.443 258.436 905.54 37.2904 1030.15 272.285C1109.05 421.088 1124.52 614.942 1181.45 1016.09C1226.84 1336.1 1305.09 1795.4 1483.04 2316.18" stroke="white" stroke-opacity="0.3" stroke-miterlimit="10"/>
<path d="M3.75391 1420.51C195.658 1377.62 313.841 1143.8 383.203 962.473C447.514 794.343 478.749 741.645 567.138 577.915C722.153 290.787 898.186 79.8247 1021.32 295.419C1103.87 439.958 1126.32 629.73 1188.98 1030.23C1237.66 1341.3 1318.03 1792.12 1492.6 2308" stroke="white" stroke-opacity="0.3" stroke-miterlimit="10"/>
<path d="M4.23438 1332.06C189.859 1327.66 307.695 1115.38 376.145 952.951C441.732 797.309 477.557 752.627 570.466 592.88C727.716 322.59 891.105 121.591 1012.52 318.558C1098.84 458.599 1127.97 644.548 1196.54 1044.39C1248.35 1346.55 1330.93 1788.8 1502.16 2299.84" stroke="white" stroke-opacity="0.3" stroke-miterlimit="10"/>
<path d="M4.67578 1243.61C184.021 1277.74 301.724 1087.24 369.049 943.421C436.105 800.23 476.223 763.268 573.76 607.859C733.121 353.857 884.203 162.577 1003.67 341.688C1093.91 476.937 1129.45 659.491 1204.06 1058.55C1258.92 1351.93 1343.85 1785.57 1511.75 2291.68" stroke="white" stroke-opacity="0.3" stroke-miterlimit="10"/>
<path d="M5.13281 1155.2C178.203 1227.86 295.989 1059.49 361.969 933.931C430.651 803.241 474.854 773.78 577.064 622.856C738.404 384.639 877.474 202.844 994.847 364.859C1089.08 494.924 1130.82 674.61 1211.6 1072.73C1269.37 1357.46 1356.77 1782.31 1521.28 2283.55" stroke="white" stroke-opacity="0.3" stroke-miterlimit="10"/>
<path d="M5.59375 1066.71C172.405 1177.91 290.481 1032.14 354.896 924.375C425.421 806.381 473.44 783.844 580.377 637.798C743.621 414.85 870.907 242.296 986.023 387.95C1084.36 512.378 1132.05 689.871 1219.14 1086.86C1279.73 1363.08 1369.69 1779 1530.84 2275.33" stroke="white" stroke-opacity="0.3" stroke-miterlimit="10"/>
<path d="M6.05078 978.261C166.562 1128.01 285.181 1005.41 347.816 914.853C420.385 809.923 471.993 793.599 583.682 652.762C748.772 444.619 864.455 281.084 977.196 411.088C1079.73 529.315 1133.15 705.41 1226.67 1101C1290 1368.9 1382.61 1775.72 1540.4 2267.18" stroke="white" stroke-opacity="0.3" stroke-miterlimit="10"/>
<path d="M6.51172 889.797C160.744 1078.09 280.066 979.358 340.739 905.312C415.543 814.023 470.48 803.018 586.995 667.72C753.885 473.927 858.091 319.18 968.377 434.22C1075.17 545.62 1134.14 721.226 1234.21 1115.15C1300.2 1374.9 1395.53 1772.43 1549.96 2259.02" stroke="white" stroke-opacity="0.3" stroke-miterlimit="10"/>
<path d="M6.97266 801.352C154.93 1028.17 275.105 954.077 333.662 895.791C410.872 818.939 468.958 812.088 590.295 682.697C758.961 502.839 851.776 356.707 959.545 457.347C1070.7 561.211 1135 737.392 1241.74 1129.3C1310.33 1381.11 1408.45 1769.19 1559.52 2250.82" stroke="white" stroke-opacity="0.3" stroke-miterlimit="10"/>
<path d="M7.42969 712.91C149.108 978.273 270.239 929.62 326.565 886.273C406.304 824.923 467.399 820.817 593.596 697.664C764.03 531.348 845.482 393.513 950.709 480.489C1066.26 575.994 1135.76 753.916 1249.27 1143.5C1320.39 1387.57 1421.35 1765.92 1569.06 2242.73" stroke="white" stroke-opacity="0.3" stroke-miterlimit="10"/>
<path d="M7.89062 624.447C143.31 928.353 265.418 905.987 319.505 876.746C401.835 832.235 465.865 829.184 596.922 712.636C769.114 559.446 839.216 429.797 941.903 503.611C1061.88 589.875 1136.45 770.775 1256.82 1157.6C1330.45 1394.18 1434.29 1762.59 1578.64 2234.52" stroke="white" stroke-opacity="0.3" stroke-miterlimit="10"/>
<path d="M8.37109 536.004C137.491 878.441 261.155 838.856 312.448 867.215C396.347 913.613 464.334 837.202 600.254 727.603C774.226 587.293 832.908 465.549 933.078 526.752C1057.5 602.734 1137.04 788.144 1264.36 1171.76C1340.45 1401 1447.21 1759.31 1588.2 2226.31" stroke="white" stroke-opacity="0.3" stroke-miterlimit="10"/>
<path d="M8.80859 447.56C131.653 828.527 256.791 824.519 305.348 857.694C390.455 915.833 462.759 844.887 603.539 742.568C779.354 614.746 826.524 500.772 924.252 549.891C1053.11 614.574 1137.56 805.879 1271.9 1185.94C1350.43 1408.09 1460.12 1756.07 1597.76 2218.22" stroke="white" stroke-opacity="0.3" stroke-miterlimit="10"/>
<path d="M9.27344 359.098C125.839 778.62 251.862 811.587 298.275 848.169C384.914 916.443 461.221 852.225 606.856 757.48C784.516 641.962 820.069 535.586 915.433 572.952C1048.69 625.172 1138.03 823.989 1279.44 1200C1360.4 1415.27 1473.05 1752.72 1607.32 2209.97" stroke="white" stroke-opacity="0.3" stroke-miterlimit="10"/>
<path d="M9.73047 270.654C120.016 728.706 244.86 818.464 291.199 838.648C382.473 878.318 459.699 859.262 610.165 772.47C789.725 668.95 813.493 570.05 906.609 596.117C1044.19 634.672 1138.44 842.693 1286.99 1214.22C1370.37 1422.81 1485.98 1749.47 1616.88 2201.87" stroke="white" stroke-opacity="0.3" stroke-miterlimit="10"/>
<path d="M10.1914 182.205C114.198 678.788 239.092 797.652 284.118 829.111C376.692 893.782 458.19 865.975 613.47 787.443C794.971 695.688 806.772 604.129 897.782 619.252C1039.6 642.807 1138.82 861.661 1294.52 1228.34C1380.34 1430.46 1498.89 1746.16 1626.44 2193.67" stroke="white" stroke-opacity="0.3" stroke-miterlimit="10"/>
<path d="M10.6484 93.7448C108.38 628.871 232.926 776.816 277.038 819.587C370.378 910.129 456.706 872.395 616.779 802.43C800.275 722.231 799.89 637.939 888.959 642.4C1034.87 649.753 1139.17 881.145 1302.06 1242.5C1390.32 1438.29 1511.8 1742.91 1636 2185.53" stroke="white" stroke-opacity="0.3" stroke-miterlimit="10"/>
</svg>
