<svg width="64" height="64" viewBox="0 0 64 64" fill="none" xmlns="http://www.w3.org/2000/svg">
<path d="M32 14.5867C34.6783 14.5744 37.3329 15.09 39.8118 16.104C42.2908 17.118 44.5457 18.6106 46.4477 20.4964C48.3496 22.3823 49.8613 24.6244 50.8963 27.0947C51.9314 29.5649 52.4695 32.215 52.48 34.8933C52.4864 39.5509 50.8745 44.0661 47.92 47.6667L46.44 49.4133L43.7733 47.16L44.8133 46L44.92 45.8933C47.3416 43.1092 48.7759 39.6031 49 35.92H44.8V32.5067H48.8933C48.4602 29.4672 47.1959 26.6065 45.24 24.24L42.7467 26.7333L40.3333 24.32L42.8267 21.8267C40.219 19.7118 37.0479 18.4091 33.7067 18.08V23.12H30.2933V18.08C26.9515 18.4068 23.7797 19.7098 21.1733 21.8267L23.6667 24.32L21.2533 26.7333L18.76 24.24C16.8041 26.6065 15.5398 29.4672 15.1067 32.5067H19.2V35.92H14.96C15.1486 39.4074 16.4474 42.7432 18.6667 45.44L20.1733 47.16L17.6267 49.4133L16.5067 48.08C13.2501 44.4366 11.4634 39.7132 11.4933 34.8267C11.5321 29.4244 13.7136 24.2584 17.5586 20.4634C21.4036 16.6684 26.5977 14.5547 32 14.5867ZM38.32 28L40.7333 30.4L35.2667 35.8533C35.4559 36.5743 35.4029 37.3375 35.1159 38.0255C34.829 38.7134 34.3238 39.288 33.6783 39.6608C33.0328 40.0336 32.2826 40.1839 31.5433 40.0885C30.804 39.9932 30.1165 39.6576 29.5867 39.1333C29.2706 38.8187 29.0198 38.4447 28.8487 38.0328C28.6776 37.6209 28.5895 37.1793 28.5895 36.7333C28.5895 36.2873 28.6776 35.8457 28.8487 35.4339C29.0198 35.022 29.2706 34.648 29.5867 34.3333C29.9701 33.9448 30.4425 33.6555 30.9629 33.4906C31.4833 33.3256 32.0361 33.29 32.5733 33.3867L32.8667 33.4533L38.32 28Z" fill="#AE8FF7"/>
</svg>
